<?xml version="1.0" standalone="no"?>
<!DOCTYPE svg PUBLIC "-//W3C//DTD SVG 20010904//EN"
 "http://www.w3.org/TR/2001/REC-SVG-20010904/DTD/svg10.dtd">
<svg version="1.0" xmlns="http://www.w3.org/2000/svg"
 width="578.000000pt" height="314.000000pt" viewBox="0 0 578.000000 314.000000"
 preserveAspectRatio="xMidYMid meet">

<g transform="translate(0.000000,314.000000) scale(0.100000,-0.100000)"
fill="#000000" stroke="none">
<path d="M1050 888 c0 -233 4 -377 11 -403 14 -51 81 -116 136 -133 22 -6 61
-12 87 -12 l46 0 0 75 0 75 -32 0 c-18 0 -44 6 -58 13 l-25 13 -5 364 -5 365
-77 3 -78 3 0 -363z"/>
<path d="M150 1183 c-8 -3 -23 -12 -32 -21 -17 -14 -18 -46 -18 -396 0 -210 4
-386 8 -392 20 -31 54 -34 369 -34 288 0 322 2 359 19 78 35 110 108 101 223
-7 77 -35 139 -84 184 l-35 32 23 43 c15 29 24 69 27 117 8 123 -35 194 -133
221 -41 11 -556 15 -585 4z m568 -198 c3 -54 -24 -106 -68 -127 -29 -15 -62
-18 -187 -18 l-153 0 0 -75 0 -75 180 0 c217 0 252 -9 281 -74 25 -55 25 -102
0 -116 -12 -6 -117 -10 -270 -10 l-251 0 0 270 0 270 233 -2 232 -3 3 -40z"/>
<path d="M2990 1110 l0 -80 254 -2 253 -3 -258 -288 c-282 -313 -287 -320
-234 -372 l24 -25 361 0 360 0 0 75 0 75 -255 0 c-140 0 -255 4 -255 8 0 4
113 134 251 288 138 153 255 290 260 302 12 31 -7 72 -41 89 -19 10 -112 13
-372 13 l-348 0 0 -80z"/>
<path d="M1566 968 c-55 -15 -121 -82 -136 -138 -18 -68 -9 -336 13 -377 22
-42 79 -87 126 -102 49 -14 348 -15 406 0 61 15 119 68 139 126 19 57 22 280
4 351 -14 57 -79 126 -134 141 -49 14 -366 12 -418 -1z m387 -157 c14 -11 17
-35 17 -152 0 -178 10 -169 -196 -169 -202 0 -198 -3 -202 152 -4 123 5 163
40 178 36 15 322 8 341 -9z"/>
<path d="M2405 971 c-41 -10 -65 -24 -97 -58 -47 -49 -58 -100 -58 -262 0
-161 11 -201 66 -253 55 -51 95 -58 340 -58 l224 0 0 75 0 75 -215 0 c-216 0
-216 0 -240 25 -24 23 -25 30 -25 143 0 177 -16 166 259 170 l221 3 0 75 0 74
-222 -1 c-123 -1 -236 -4 -253 -8z"/>
<path d="M3870 660 l0 -320 80 0 80 0 0 320 0 320 -80 0 -80 0 0 -320z"/>
<path d="M4315 971 c-66 -17 -116 -63 -140 -130 -18 -52 -21 -294 -4 -356 14
-51 81 -116 136 -133 24 -7 101 -12 192 -12 l151 0 0 75 0 75 -145 0 c-142 0
-147 1 -170 25 -24 23 -25 30 -25 143 0 173 -7 167 203 167 124 0 168 -3 180
-14 15 -12 17 -45 17 -290 0 -202 -3 -280 -12 -289 -8 -8 -59 -12 -164 -12
l-152 0 -4 -76 c-2 -55 1 -78 9 -81 7 -3 82 -4 166 -2 140 4 157 6 202 30 54
27 89 70 105 128 14 49 13 555 -1 606 -15 55 -52 101 -102 128 -39 20 -57 22
-227 24 -102 1 -198 -2 -215 -6z"/>
<path d="M5035 956 l-25 -25 0 -296 0 -295 75 0 75 0 2 243 3 242 135 3 c158
3 209 -10 241 -62 17 -28 19 -52 19 -228 l0 -198 81 0 81 0 -4 213 c-3 196 -6
216 -27 265 -27 59 -74 105 -140 136 -42 19 -68 21 -268 24 l-222 4 -26 -26z"/>
</g>
</svg>
